<mxfile host="app.diagrams.net" agent="Mozilla/5.0 (Windows NT 10.0; Win64; x64) AppleWebKit/537.36 (KHTML, like Gecko) Chrome/141.0.0.0 Safari/537.36" version="28.2.7">
  <diagram id="C5RBs43oDa-KdzZeNtuy" name="Page-1">
    <mxGraphModel dx="5127" dy="3042" grid="1" gridSize="10" guides="1" tooltips="1" connect="1" arrows="1" fold="1" page="1" pageScale="1" pageWidth="827" pageHeight="1169" math="0" shadow="0">
      <root>
        <mxCell id="WIyWlLk6GJQsqaUBKTNV-0" />
        <mxCell id="WIyWlLk6GJQsqaUBKTNV-1" parent="WIyWlLk6GJQsqaUBKTNV-0" />
        <mxCell id="57OLC-S-aYihDI3UGC5i-28" style="edgeStyle=orthogonalEdgeStyle;rounded=0;orthogonalLoop=1;jettySize=auto;html=1;endArrow=none;endFill=0;" parent="WIyWlLk6GJQsqaUBKTNV-1" source="zkfFHV4jXpPFQw0GAbJ--0" target="57OLC-S-aYihDI3UGC5i-22" edge="1">
          <mxGeometry relative="1" as="geometry" />
        </mxCell>
        <mxCell id="QdtZT5HFfQkPyaU6Wwgz-62" value="" style="edgeStyle=orthogonalEdgeStyle;rounded=0;orthogonalLoop=1;jettySize=auto;html=1;endArrow=none;endFill=0;" edge="1" parent="WIyWlLk6GJQsqaUBKTNV-1" source="zkfFHV4jXpPFQw0GAbJ--0" target="QdtZT5HFfQkPyaU6Wwgz-53">
          <mxGeometry relative="1" as="geometry" />
        </mxCell>
        <mxCell id="zkfFHV4jXpPFQw0GAbJ--0" value="user1 : Usuario" style="swimlane;fontStyle=2;align=center;verticalAlign=top;childLayout=stackLayout;horizontal=1;startSize=26;horizontalStack=0;resizeParent=1;resizeLast=0;collapsible=1;marginBottom=0;rounded=0;shadow=0;strokeWidth=1;" parent="WIyWlLk6GJQsqaUBKTNV-1" vertex="1">
          <mxGeometry x="70" y="120" width="350" height="240" as="geometry">
            <mxRectangle x="230" y="140" width="160" height="26" as="alternateBounds" />
          </mxGeometry>
        </mxCell>
        <mxCell id="zkfFHV4jXpPFQw0GAbJ--1" value="- nome = Guilherme Shimada Pereira" style="text;align=left;verticalAlign=top;spacingLeft=4;spacingRight=4;overflow=hidden;rotatable=0;points=[[0,0.5],[1,0.5]];portConstraint=eastwest;" parent="zkfFHV4jXpPFQw0GAbJ--0" vertex="1">
          <mxGeometry y="26" width="350" height="26" as="geometry" />
        </mxCell>
        <mxCell id="zkfFHV4jXpPFQw0GAbJ--2" value="- email = gspx@gmail.com" style="text;align=left;verticalAlign=top;spacingLeft=4;spacingRight=4;overflow=hidden;rotatable=0;points=[[0,0.5],[1,0.5]];portConstraint=eastwest;rounded=0;shadow=0;html=0;" parent="zkfFHV4jXpPFQw0GAbJ--0" vertex="1">
          <mxGeometry y="52" width="350" height="26" as="geometry" />
        </mxCell>
        <mxCell id="zkfFHV4jXpPFQw0GAbJ--3" value="- senha = 123456789" style="text;align=left;verticalAlign=top;spacingLeft=4;spacingRight=4;overflow=hidden;rotatable=0;points=[[0,0.5],[1,0.5]];portConstraint=eastwest;rounded=0;shadow=0;html=0;" parent="zkfFHV4jXpPFQw0GAbJ--0" vertex="1">
          <mxGeometry y="78" width="350" height="26" as="geometry" />
        </mxCell>
        <mxCell id="57OLC-S-aYihDI3UGC5i-0" value="- telefone = 5513996657662" style="text;align=left;verticalAlign=top;spacingLeft=4;spacingRight=4;overflow=hidden;rotatable=0;points=[[0,0.5],[1,0.5]];portConstraint=eastwest;rounded=0;shadow=0;html=0;" parent="zkfFHV4jXpPFQw0GAbJ--0" vertex="1">
          <mxGeometry y="104" width="350" height="26" as="geometry" />
        </mxCell>
        <mxCell id="57OLC-S-aYihDI3UGC5i-1" value="- data_nasc = 2006-23-07" style="text;align=left;verticalAlign=top;spacingLeft=4;spacingRight=4;overflow=hidden;rotatable=0;points=[[0,0.5],[1,0.5]];portConstraint=eastwest;rounded=0;shadow=0;html=0;" parent="zkfFHV4jXpPFQw0GAbJ--0" vertex="1">
          <mxGeometry y="130" width="350" height="26" as="geometry" />
        </mxCell>
        <mxCell id="57OLC-S-aYihDI3UGC5i-2" value="- tipo_acesso = padrao" style="text;align=left;verticalAlign=top;spacingLeft=4;spacingRight=4;overflow=hidden;rotatable=0;points=[[0,0.5],[1,0.5]];portConstraint=eastwest;rounded=0;shadow=0;html=0;" parent="zkfFHV4jXpPFQw0GAbJ--0" vertex="1">
          <mxGeometry y="156" width="350" height="26" as="geometry" />
        </mxCell>
        <mxCell id="57OLC-S-aYihDI3UGC5i-5" value="- endereco_propriedade = Registro-SP, Avenida um, rua dois, 3" style="text;align=left;verticalAlign=top;spacingLeft=4;spacingRight=4;overflow=hidden;rotatable=0;points=[[0,0.5],[1,0.5]];portConstraint=eastwest;rounded=0;shadow=0;html=0;" parent="zkfFHV4jXpPFQw0GAbJ--0" vertex="1">
          <mxGeometry y="182" width="350" height="26" as="geometry" />
        </mxCell>
        <mxCell id="57OLC-S-aYihDI3UGC5i-3" value="- cnpj = 55555555555" style="text;align=left;verticalAlign=top;spacingLeft=4;spacingRight=4;overflow=hidden;rotatable=0;points=[[0,0.5],[1,0.5]];portConstraint=eastwest;rounded=0;shadow=0;html=0;" parent="zkfFHV4jXpPFQw0GAbJ--0" vertex="1">
          <mxGeometry y="208" width="350" height="26" as="geometry" />
        </mxCell>
        <mxCell id="57OLC-S-aYihDI3UGC5i-18" value="" style="edgeStyle=orthogonalEdgeStyle;rounded=0;orthogonalLoop=1;jettySize=auto;html=1;endArrow=none;endFill=0;" parent="WIyWlLk6GJQsqaUBKTNV-1" source="zkfFHV4jXpPFQw0GAbJ--17" target="57OLC-S-aYihDI3UGC5i-12" edge="1">
          <mxGeometry relative="1" as="geometry" />
        </mxCell>
        <mxCell id="57OLC-S-aYihDI3UGC5i-63" value="" style="edgeStyle=orthogonalEdgeStyle;rounded=0;orthogonalLoop=1;jettySize=auto;html=1;endArrow=none;endFill=0;" parent="WIyWlLk6GJQsqaUBKTNV-1" source="zkfFHV4jXpPFQw0GAbJ--17" target="57OLC-S-aYihDI3UGC5i-57" edge="1">
          <mxGeometry relative="1" as="geometry" />
        </mxCell>
        <mxCell id="zkfFHV4jXpPFQw0GAbJ--17" value="ft1 : Foto" style="swimlane;fontStyle=0;align=center;verticalAlign=top;childLayout=stackLayout;horizontal=1;startSize=26;horizontalStack=0;resizeParent=1;resizeLast=0;collapsible=1;marginBottom=0;rounded=0;shadow=0;strokeWidth=1;" parent="WIyWlLk6GJQsqaUBKTNV-1" vertex="1">
          <mxGeometry x="508" y="120" width="252" height="160" as="geometry">
            <mxRectangle x="550" y="140" width="160" height="26" as="alternateBounds" />
          </mxGeometry>
        </mxCell>
        <mxCell id="zkfFHV4jXpPFQw0GAbJ--18" value="- caminho = /data/data/ponskan/photos" style="text;align=left;verticalAlign=top;spacingLeft=4;spacingRight=4;overflow=hidden;rotatable=0;points=[[0,0.5],[1,0.5]];portConstraint=eastwest;" parent="zkfFHV4jXpPFQw0GAbJ--17" vertex="1">
          <mxGeometry y="26" width="252" height="26" as="geometry" />
        </mxCell>
        <mxCell id="zkfFHV4jXpPFQw0GAbJ--19" value="- data = 2025-16-10" style="text;align=left;verticalAlign=top;spacingLeft=4;spacingRight=4;overflow=hidden;rotatable=0;points=[[0,0.5],[1,0.5]];portConstraint=eastwest;rounded=0;shadow=0;html=0;" parent="zkfFHV4jXpPFQw0GAbJ--17" vertex="1">
          <mxGeometry y="52" width="252" height="26" as="geometry" />
        </mxCell>
        <mxCell id="zkfFHV4jXpPFQw0GAbJ--20" value="- hora = 19:47:32" style="text;align=left;verticalAlign=top;spacingLeft=4;spacingRight=4;overflow=hidden;rotatable=0;points=[[0,0.5],[1,0.5]];portConstraint=eastwest;rounded=0;shadow=0;html=0;" parent="zkfFHV4jXpPFQw0GAbJ--17" vertex="1">
          <mxGeometry y="78" width="252" height="26" as="geometry" />
        </mxCell>
        <mxCell id="zkfFHV4jXpPFQw0GAbJ--21" value="- coordenadas =Â POINT(-46.63, -23.55)" style="text;align=left;verticalAlign=top;spacingLeft=4;spacingRight=4;overflow=hidden;rotatable=0;points=[[0,0.5],[1,0.5]];portConstraint=eastwest;rounded=0;shadow=0;html=0;" parent="zkfFHV4jXpPFQw0GAbJ--17" vertex="1">
          <mxGeometry y="104" width="252" height="26" as="geometry" />
        </mxCell>
        <mxCell id="zkfFHV4jXpPFQw0GAbJ--22" value="- caso = 101" style="text;align=left;verticalAlign=top;spacingLeft=4;spacingRight=4;overflow=hidden;rotatable=0;points=[[0,0.5],[1,0.5]];portConstraint=eastwest;rounded=0;shadow=0;html=0;" parent="zkfFHV4jXpPFQw0GAbJ--17" vertex="1">
          <mxGeometry y="130" width="252" height="26" as="geometry" />
        </mxCell>
        <mxCell id="zkfFHV4jXpPFQw0GAbJ--26" value="" style="endArrow=none;shadow=0;strokeWidth=1;rounded=0;curved=0;endFill=0;edgeStyle=elbowEdgeStyle;elbow=vertical;" parent="WIyWlLk6GJQsqaUBKTNV-1" source="zkfFHV4jXpPFQw0GAbJ--0" target="zkfFHV4jXpPFQw0GAbJ--17" edge="1">
          <mxGeometry x="0.5" y="41" relative="1" as="geometry">
            <mxPoint x="380" y="192" as="sourcePoint" />
            <mxPoint x="540" y="192" as="targetPoint" />
            <mxPoint x="-40" y="32" as="offset" />
          </mxGeometry>
        </mxCell>
        <mxCell id="57OLC-S-aYihDI3UGC5i-48" value="" style="edgeStyle=orthogonalEdgeStyle;rounded=0;orthogonalLoop=1;jettySize=auto;html=1;endArrow=none;endFill=0;" parent="WIyWlLk6GJQsqaUBKTNV-1" source="57OLC-S-aYihDI3UGC5i-12" target="57OLC-S-aYihDI3UGC5i-39" edge="1">
          <mxGeometry relative="1" as="geometry" />
        </mxCell>
        <mxCell id="57OLC-S-aYihDI3UGC5i-12" value="clas1 : Classificacao" style="swimlane;fontStyle=0;align=center;verticalAlign=top;childLayout=stackLayout;horizontal=1;startSize=26;horizontalStack=0;resizeParent=1;resizeLast=0;collapsible=1;marginBottom=0;rounded=0;shadow=0;strokeWidth=1;" parent="WIyWlLk6GJQsqaUBKTNV-1" vertex="1">
          <mxGeometry x="850" y="60" width="252" height="260" as="geometry">
            <mxRectangle x="550" y="140" width="160" height="26" as="alternateBounds" />
          </mxGeometry>
        </mxCell>
        <mxCell id="57OLC-S-aYihDI3UGC5i-13" value="- tempoExecucao = 00:01:25" style="text;align=left;verticalAlign=top;spacingLeft=4;spacingRight=4;overflow=hidden;rotatable=0;points=[[0,0.5],[1,0.5]];portConstraint=eastwest;" parent="57OLC-S-aYihDI3UGC5i-12" vertex="1">
          <mxGeometry y="26" width="252" height="26" as="geometry" />
        </mxCell>
        <mxCell id="57OLC-S-aYihDI3UGC5i-14" value="- PintaPreta = 0.35" style="text;align=left;verticalAlign=top;spacingLeft=4;spacingRight=4;overflow=hidden;rotatable=0;points=[[0,0.5],[1,0.5]];portConstraint=eastwest;rounded=0;shadow=0;html=0;" parent="57OLC-S-aYihDI3UGC5i-12" vertex="1">
          <mxGeometry y="52" width="252" height="26" as="geometry" />
        </mxCell>
        <mxCell id="57OLC-S-aYihDI3UGC5i-55" value="- Saudavel = 0.55" style="text;align=left;verticalAlign=top;spacingLeft=4;spacingRight=4;overflow=hidden;rotatable=0;points=[[0,0.5],[1,0.5]];portConstraint=eastwest;rounded=0;shadow=0;html=0;" parent="57OLC-S-aYihDI3UGC5i-12" vertex="1">
          <mxGeometry y="78" width="252" height="26" as="geometry" />
        </mxCell>
        <mxCell id="57OLC-S-aYihDI3UGC5i-15" value="- ManchaPreta = 0.09" style="text;align=left;verticalAlign=top;spacingLeft=4;spacingRight=4;overflow=hidden;rotatable=0;points=[[0,0.5],[1,0.5]];portConstraint=eastwest;rounded=0;shadow=0;html=0;" parent="57OLC-S-aYihDI3UGC5i-12" vertex="1">
          <mxGeometry y="104" width="252" height="26" as="geometry" />
        </mxCell>
        <mxCell id="57OLC-S-aYihDI3UGC5i-16" value="- ManchaVirulenta = 0.03" style="text;align=left;verticalAlign=top;spacingLeft=4;spacingRight=4;overflow=hidden;rotatable=0;points=[[0,0.5],[1,0.5]];portConstraint=eastwest;rounded=0;shadow=0;html=0;" parent="57OLC-S-aYihDI3UGC5i-12" vertex="1">
          <mxGeometry y="130" width="252" height="26" as="geometry" />
        </mxCell>
        <mxCell id="57OLC-S-aYihDI3UGC5i-17" value="- ManchaSardenta = 0.02" style="text;align=left;verticalAlign=top;spacingLeft=4;spacingRight=4;overflow=hidden;rotatable=0;points=[[0,0.5],[1,0.5]];portConstraint=eastwest;rounded=0;shadow=0;html=0;" parent="57OLC-S-aYihDI3UGC5i-12" vertex="1">
          <mxGeometry y="156" width="252" height="26" as="geometry" />
        </mxCell>
        <mxCell id="57OLC-S-aYihDI3UGC5i-19" value="- ManchaRendilhada = 0.08" style="text;align=left;verticalAlign=top;spacingLeft=4;spacingRight=4;overflow=hidden;rotatable=0;points=[[0,0.5],[1,0.5]];portConstraint=eastwest;rounded=0;shadow=0;html=0;" parent="57OLC-S-aYihDI3UGC5i-12" vertex="1">
          <mxGeometry y="182" width="252" height="26" as="geometry" />
        </mxCell>
        <mxCell id="57OLC-S-aYihDI3UGC5i-20" value="- ManchaTrincada = 0.01" style="text;align=left;verticalAlign=top;spacingLeft=4;spacingRight=4;overflow=hidden;rotatable=0;points=[[0,0.5],[1,0.5]];portConstraint=eastwest;rounded=0;shadow=0;html=0;" parent="57OLC-S-aYihDI3UGC5i-12" vertex="1">
          <mxGeometry y="208" width="252" height="26" as="geometry" />
        </mxCell>
        <mxCell id="57OLC-S-aYihDI3UGC5i-21" value="- FalsaMelanose = 0.14" style="text;align=left;verticalAlign=top;spacingLeft=4;spacingRight=4;overflow=hidden;rotatable=0;points=[[0,0.5],[1,0.5]];portConstraint=eastwest;rounded=0;shadow=0;html=0;" parent="57OLC-S-aYihDI3UGC5i-12" vertex="1">
          <mxGeometry y="234" width="252" height="26" as="geometry" />
        </mxCell>
        <mxCell id="57OLC-S-aYihDI3UGC5i-82" style="edgeStyle=orthogonalEdgeStyle;rounded=0;orthogonalLoop=1;jettySize=auto;html=1;endArrow=none;endFill=0;" parent="WIyWlLk6GJQsqaUBKTNV-1" source="57OLC-S-aYihDI3UGC5i-22" target="57OLC-S-aYihDI3UGC5i-70" edge="1">
          <mxGeometry relative="1" as="geometry" />
        </mxCell>
        <mxCell id="57OLC-S-aYihDI3UGC5i-22" value="ft2 : Foto" style="swimlane;fontStyle=0;align=center;verticalAlign=top;childLayout=stackLayout;horizontal=1;startSize=26;horizontalStack=0;resizeParent=1;resizeLast=0;collapsible=1;marginBottom=0;rounded=0;shadow=0;strokeWidth=1;" parent="WIyWlLk6GJQsqaUBKTNV-1" vertex="1">
          <mxGeometry x="508" y="350" width="252" height="160" as="geometry">
            <mxRectangle x="550" y="140" width="160" height="26" as="alternateBounds" />
          </mxGeometry>
        </mxCell>
        <mxCell id="57OLC-S-aYihDI3UGC5i-23" value="- caminho = /data/data/ponskan/photos" style="text;align=left;verticalAlign=top;spacingLeft=4;spacingRight=4;overflow=hidden;rotatable=0;points=[[0,0.5],[1,0.5]];portConstraint=eastwest;" parent="57OLC-S-aYihDI3UGC5i-22" vertex="1">
          <mxGeometry y="26" width="252" height="26" as="geometry" />
        </mxCell>
        <mxCell id="57OLC-S-aYihDI3UGC5i-24" value="- data = 2025-15-10" style="text;align=left;verticalAlign=top;spacingLeft=4;spacingRight=4;overflow=hidden;rotatable=0;points=[[0,0.5],[1,0.5]];portConstraint=eastwest;rounded=0;shadow=0;html=0;" parent="57OLC-S-aYihDI3UGC5i-22" vertex="1">
          <mxGeometry y="52" width="252" height="26" as="geometry" />
        </mxCell>
        <mxCell id="57OLC-S-aYihDI3UGC5i-25" value="- hora = 20:01:54" style="text;align=left;verticalAlign=top;spacingLeft=4;spacingRight=4;overflow=hidden;rotatable=0;points=[[0,0.5],[1,0.5]];portConstraint=eastwest;rounded=0;shadow=0;html=0;" parent="57OLC-S-aYihDI3UGC5i-22" vertex="1">
          <mxGeometry y="78" width="252" height="26" as="geometry" />
        </mxCell>
        <mxCell id="57OLC-S-aYihDI3UGC5i-26" value="- coordenadas =Â POINT(-49.12, -26.85)" style="text;align=left;verticalAlign=top;spacingLeft=4;spacingRight=4;overflow=hidden;rotatable=0;points=[[0,0.5],[1,0.5]];portConstraint=eastwest;rounded=0;shadow=0;html=0;" parent="57OLC-S-aYihDI3UGC5i-22" vertex="1">
          <mxGeometry y="104" width="252" height="26" as="geometry" />
        </mxCell>
        <mxCell id="57OLC-S-aYihDI3UGC5i-27" value="- caso = 102" style="text;align=left;verticalAlign=top;spacingLeft=4;spacingRight=4;overflow=hidden;rotatable=0;points=[[0,0.5],[1,0.5]];portConstraint=eastwest;rounded=0;shadow=0;html=0;" parent="57OLC-S-aYihDI3UGC5i-22" vertex="1">
          <mxGeometry y="130" width="252" height="26" as="geometry" />
        </mxCell>
        <mxCell id="57OLC-S-aYihDI3UGC5i-29" value="clas1 : Classificacao" style="swimlane;fontStyle=0;align=center;verticalAlign=top;childLayout=stackLayout;horizontal=1;startSize=26;horizontalStack=0;resizeParent=1;resizeLast=0;collapsible=1;marginBottom=0;rounded=0;shadow=0;strokeWidth=1;" parent="WIyWlLk6GJQsqaUBKTNV-1" vertex="1">
          <mxGeometry x="850" y="340" width="252" height="260" as="geometry">
            <mxRectangle x="550" y="140" width="160" height="26" as="alternateBounds" />
          </mxGeometry>
        </mxCell>
        <mxCell id="57OLC-S-aYihDI3UGC5i-30" value="- tempoExecucao = 00:02:40" style="text;align=left;verticalAlign=top;spacingLeft=4;spacingRight=4;overflow=hidden;rotatable=0;points=[[0,0.5],[1,0.5]];portConstraint=eastwest;" parent="57OLC-S-aYihDI3UGC5i-29" vertex="1">
          <mxGeometry y="26" width="252" height="26" as="geometry" />
        </mxCell>
        <mxCell id="57OLC-S-aYihDI3UGC5i-31" value="- PintaPreta = 0.96" style="text;align=left;verticalAlign=top;spacingLeft=4;spacingRight=4;overflow=hidden;rotatable=0;points=[[0,0.5],[1,0.5]];portConstraint=eastwest;rounded=0;shadow=0;html=0;" parent="57OLC-S-aYihDI3UGC5i-29" vertex="1">
          <mxGeometry y="52" width="252" height="26" as="geometry" />
        </mxCell>
        <mxCell id="57OLC-S-aYihDI3UGC5i-56" value="- Saudavel = 0.08" style="text;align=left;verticalAlign=top;spacingLeft=4;spacingRight=4;overflow=hidden;rotatable=0;points=[[0,0.5],[1,0.5]];portConstraint=eastwest;rounded=0;shadow=0;html=0;" parent="57OLC-S-aYihDI3UGC5i-29" vertex="1">
          <mxGeometry y="78" width="252" height="26" as="geometry" />
        </mxCell>
        <mxCell id="57OLC-S-aYihDI3UGC5i-32" value="- ManchaPreta = 0.01" style="text;align=left;verticalAlign=top;spacingLeft=4;spacingRight=4;overflow=hidden;rotatable=0;points=[[0,0.5],[1,0.5]];portConstraint=eastwest;rounded=0;shadow=0;html=0;" parent="57OLC-S-aYihDI3UGC5i-29" vertex="1">
          <mxGeometry y="104" width="252" height="26" as="geometry" />
        </mxCell>
        <mxCell id="57OLC-S-aYihDI3UGC5i-33" value="- ManchaVirulenta = 0.04" style="text;align=left;verticalAlign=top;spacingLeft=4;spacingRight=4;overflow=hidden;rotatable=0;points=[[0,0.5],[1,0.5]];portConstraint=eastwest;rounded=0;shadow=0;html=0;" parent="57OLC-S-aYihDI3UGC5i-29" vertex="1">
          <mxGeometry y="130" width="252" height="26" as="geometry" />
        </mxCell>
        <mxCell id="57OLC-S-aYihDI3UGC5i-34" value="- ManchaSardenta = 0.08" style="text;align=left;verticalAlign=top;spacingLeft=4;spacingRight=4;overflow=hidden;rotatable=0;points=[[0,0.5],[1,0.5]];portConstraint=eastwest;rounded=0;shadow=0;html=0;" parent="57OLC-S-aYihDI3UGC5i-29" vertex="1">
          <mxGeometry y="156" width="252" height="26" as="geometry" />
        </mxCell>
        <mxCell id="57OLC-S-aYihDI3UGC5i-35" value="- ManchaRendilhada = 0.80" style="text;align=left;verticalAlign=top;spacingLeft=4;spacingRight=4;overflow=hidden;rotatable=0;points=[[0,0.5],[1,0.5]];portConstraint=eastwest;rounded=0;shadow=0;html=0;" parent="57OLC-S-aYihDI3UGC5i-29" vertex="1">
          <mxGeometry y="182" width="252" height="26" as="geometry" />
        </mxCell>
        <mxCell id="57OLC-S-aYihDI3UGC5i-36" value="- ManchaTrincada = 0.00" style="text;align=left;verticalAlign=top;spacingLeft=4;spacingRight=4;overflow=hidden;rotatable=0;points=[[0,0.5],[1,0.5]];portConstraint=eastwest;rounded=0;shadow=0;html=0;" parent="57OLC-S-aYihDI3UGC5i-29" vertex="1">
          <mxGeometry y="208" width="252" height="26" as="geometry" />
        </mxCell>
        <mxCell id="57OLC-S-aYihDI3UGC5i-37" value="- FalsaMelanose = 0.04" style="text;align=left;verticalAlign=top;spacingLeft=4;spacingRight=4;overflow=hidden;rotatable=0;points=[[0,0.5],[1,0.5]];portConstraint=eastwest;rounded=0;shadow=0;html=0;" parent="57OLC-S-aYihDI3UGC5i-29" vertex="1">
          <mxGeometry y="234" width="252" height="26" as="geometry" />
        </mxCell>
        <mxCell id="57OLC-S-aYihDI3UGC5i-38" value="" style="edgeStyle=orthogonalEdgeStyle;rounded=0;orthogonalLoop=1;jettySize=auto;html=1;endArrow=none;endFill=0;" parent="WIyWlLk6GJQsqaUBKTNV-1" source="57OLC-S-aYihDI3UGC5i-22" target="57OLC-S-aYihDI3UGC5i-29" edge="1">
          <mxGeometry relative="1" as="geometry">
            <mxPoint x="820" y="200" as="sourcePoint" />
            <mxPoint x="910" y="200" as="targetPoint" />
          </mxGeometry>
        </mxCell>
        <mxCell id="57OLC-S-aYihDI3UGC5i-87" value="" style="edgeStyle=orthogonalEdgeStyle;rounded=0;orthogonalLoop=1;jettySize=auto;html=1;endArrow=none;endFill=0;" parent="WIyWlLk6GJQsqaUBKTNV-1" source="57OLC-S-aYihDI3UGC5i-39" target="57OLC-S-aYihDI3UGC5i-84" edge="1">
          <mxGeometry relative="1" as="geometry" />
        </mxCell>
        <mxCell id="57OLC-S-aYihDI3UGC5i-39" value="diag1 : Diagnostico" style="swimlane;fontStyle=0;align=center;verticalAlign=top;childLayout=stackLayout;horizontal=1;startSize=26;horizontalStack=0;resizeParent=1;resizeLast=0;collapsible=1;marginBottom=0;rounded=0;shadow=0;strokeWidth=1;" parent="WIyWlLk6GJQsqaUBKTNV-1" vertex="1">
          <mxGeometry x="1190" y="143.25" width="252" height="93.5" as="geometry">
            <mxRectangle x="550" y="140" width="160" height="26" as="alternateBounds" />
          </mxGeometry>
        </mxCell>
        <mxCell id="57OLC-S-aYihDI3UGC5i-40" value="- problema = NÃ£o Ã© pinta preta" style="text;align=left;verticalAlign=top;spacingLeft=4;spacingRight=4;overflow=hidden;rotatable=0;points=[[0,0.5],[1,0.5]];portConstraint=eastwest;" parent="57OLC-S-aYihDI3UGC5i-39" vertex="1">
          <mxGeometry y="26" width="252" height="26" as="geometry" />
        </mxCell>
        <mxCell id="57OLC-S-aYihDI3UGC5i-41" value="- severidade = Desconhecida" style="text;align=left;verticalAlign=top;spacingLeft=4;spacingRight=4;overflow=hidden;rotatable=0;points=[[0,0.5],[1,0.5]];portConstraint=eastwest;rounded=0;shadow=0;html=0;" parent="57OLC-S-aYihDI3UGC5i-39" vertex="1">
          <mxGeometry y="52" width="252" height="26" as="geometry" />
        </mxCell>
        <mxCell id="57OLC-S-aYihDI3UGC5i-52" style="edgeStyle=orthogonalEdgeStyle;rounded=0;orthogonalLoop=1;jettySize=auto;html=1;endArrow=none;endFill=0;" parent="WIyWlLk6GJQsqaUBKTNV-1" source="57OLC-S-aYihDI3UGC5i-49" target="57OLC-S-aYihDI3UGC5i-29" edge="1">
          <mxGeometry relative="1" as="geometry" />
        </mxCell>
        <mxCell id="57OLC-S-aYihDI3UGC5i-49" value="diag2 : Diagnostico" style="swimlane;fontStyle=0;align=center;verticalAlign=top;childLayout=stackLayout;horizontal=1;startSize=26;horizontalStack=0;resizeParent=1;resizeLast=0;collapsible=1;marginBottom=0;rounded=0;shadow=0;strokeWidth=1;" parent="WIyWlLk6GJQsqaUBKTNV-1" vertex="1">
          <mxGeometry x="1200" y="430.25" width="252" height="79.75" as="geometry">
            <mxRectangle x="550" y="140" width="160" height="26" as="alternateBounds" />
          </mxGeometry>
        </mxCell>
        <mxCell id="57OLC-S-aYihDI3UGC5i-50" value="- problema = Pinta Preta" style="text;align=left;verticalAlign=top;spacingLeft=4;spacingRight=4;overflow=hidden;rotatable=0;points=[[0,0.5],[1,0.5]];portConstraint=eastwest;" parent="57OLC-S-aYihDI3UGC5i-49" vertex="1">
          <mxGeometry y="26" width="252" height="26" as="geometry" />
        </mxCell>
        <mxCell id="57OLC-S-aYihDI3UGC5i-51" value="- severidade = Grave" style="text;align=left;verticalAlign=top;spacingLeft=4;spacingRight=4;overflow=hidden;rotatable=0;points=[[0,0.5],[1,0.5]];portConstraint=eastwest;rounded=0;shadow=0;html=0;" parent="57OLC-S-aYihDI3UGC5i-49" vertex="1">
          <mxGeometry y="52" width="252" height="26" as="geometry" />
        </mxCell>
        <mxCell id="57OLC-S-aYihDI3UGC5i-57" value="tempmom1 : Dado Temporal Momentaneo" style="swimlane;fontStyle=0;align=center;verticalAlign=top;childLayout=stackLayout;horizontal=1;startSize=26;horizontalStack=0;resizeParent=1;resizeLast=0;collapsible=1;marginBottom=0;rounded=0;shadow=0;strokeWidth=1;" parent="WIyWlLk6GJQsqaUBKTNV-1" vertex="1">
          <mxGeometry x="508" y="-260" width="252" height="312" as="geometry">
            <mxRectangle x="550" y="140" width="160" height="26" as="alternateBounds" />
          </mxGeometry>
        </mxCell>
        <mxCell id="57OLC-S-aYihDI3UGC5i-58" value="- latitude = -40.60" style="text;align=left;verticalAlign=top;spacingLeft=4;spacingRight=4;overflow=hidden;rotatable=0;points=[[0,0.5],[1,0.5]];portConstraint=eastwest;" parent="57OLC-S-aYihDI3UGC5i-57" vertex="1">
          <mxGeometry y="26" width="252" height="26" as="geometry" />
        </mxCell>
        <mxCell id="57OLC-S-aYihDI3UGC5i-59" value="- longitude = -23.60" style="text;align=left;verticalAlign=top;spacingLeft=4;spacingRight=4;overflow=hidden;rotatable=0;points=[[0,0.5],[1,0.5]];portConstraint=eastwest;rounded=0;shadow=0;html=0;" parent="57OLC-S-aYihDI3UGC5i-57" vertex="1">
          <mxGeometry y="52" width="252" height="26" as="geometry" />
        </mxCell>
        <mxCell id="57OLC-S-aYihDI3UGC5i-60" value="- dataHoraColeta = 2025-16-10 19:48:18" style="text;align=left;verticalAlign=top;spacingLeft=4;spacingRight=4;overflow=hidden;rotatable=0;points=[[0,0.5],[1,0.5]];portConstraint=eastwest;rounded=0;shadow=0;html=0;" parent="57OLC-S-aYihDI3UGC5i-57" vertex="1">
          <mxGeometry y="78" width="252" height="26" as="geometry" />
        </mxCell>
        <mxCell id="57OLC-S-aYihDI3UGC5i-62" value="- temperatura = 22.00" style="text;align=left;verticalAlign=top;spacingLeft=4;spacingRight=4;overflow=hidden;rotatable=0;points=[[0,0.5],[1,0.5]];portConstraint=eastwest;rounded=0;shadow=0;html=0;" parent="57OLC-S-aYihDI3UGC5i-57" vertex="1">
          <mxGeometry y="104" width="252" height="26" as="geometry" />
        </mxCell>
        <mxCell id="57OLC-S-aYihDI3UGC5i-64" value="- umidadeRelativa = 0.50" style="text;align=left;verticalAlign=top;spacingLeft=4;spacingRight=4;overflow=hidden;rotatable=0;points=[[0,0.5],[1,0.5]];portConstraint=eastwest;rounded=0;shadow=0;html=0;" parent="57OLC-S-aYihDI3UGC5i-57" vertex="1">
          <mxGeometry y="130" width="252" height="26" as="geometry" />
        </mxCell>
        <mxCell id="57OLC-S-aYihDI3UGC5i-65" value="- precipitacao = 01.00" style="text;align=left;verticalAlign=top;spacingLeft=4;spacingRight=4;overflow=hidden;rotatable=0;points=[[0,0.5],[1,0.5]];portConstraint=eastwest;rounded=0;shadow=0;html=0;" parent="57OLC-S-aYihDI3UGC5i-57" vertex="1">
          <mxGeometry y="156" width="252" height="26" as="geometry" />
        </mxCell>
        <mxCell id="57OLC-S-aYihDI3UGC5i-66" value="- velocidadeVento = 42.12" style="text;align=left;verticalAlign=top;spacingLeft=4;spacingRight=4;overflow=hidden;rotatable=0;points=[[0,0.5],[1,0.5]];portConstraint=eastwest;rounded=0;shadow=0;html=0;" parent="57OLC-S-aYihDI3UGC5i-57" vertex="1">
          <mxGeometry y="182" width="252" height="26" as="geometry" />
        </mxCell>
        <mxCell id="57OLC-S-aYihDI3UGC5i-67" value="- direcaoVento = 180.00" style="text;align=left;verticalAlign=top;spacingLeft=4;spacingRight=4;overflow=hidden;rotatable=0;points=[[0,0.5],[1,0.5]];portConstraint=eastwest;rounded=0;shadow=0;html=0;" parent="57OLC-S-aYihDI3UGC5i-57" vertex="1">
          <mxGeometry y="208" width="252" height="26" as="geometry" />
        </mxCell>
        <mxCell id="57OLC-S-aYihDI3UGC5i-69" value="- fonte = OpenWheater" style="text;align=left;verticalAlign=top;spacingLeft=4;spacingRight=4;overflow=hidden;rotatable=0;points=[[0,0.5],[1,0.5]];portConstraint=eastwest;rounded=0;shadow=0;html=0;" parent="57OLC-S-aYihDI3UGC5i-57" vertex="1">
          <mxGeometry y="234" width="252" height="26" as="geometry" />
        </mxCell>
        <mxCell id="57OLC-S-aYihDI3UGC5i-70" value="tempmom2: Dado Temporal Momentaneo" style="swimlane;fontStyle=0;align=center;verticalAlign=top;childLayout=stackLayout;horizontal=1;startSize=26;horizontalStack=0;resizeParent=1;resizeLast=0;collapsible=1;marginBottom=0;rounded=0;shadow=0;strokeWidth=1;" parent="WIyWlLk6GJQsqaUBKTNV-1" vertex="1">
          <mxGeometry x="508" y="580" width="252" height="312" as="geometry">
            <mxRectangle x="550" y="140" width="160" height="26" as="alternateBounds" />
          </mxGeometry>
        </mxCell>
        <mxCell id="57OLC-S-aYihDI3UGC5i-71" value="- latitude = -49.10" style="text;align=left;verticalAlign=top;spacingLeft=4;spacingRight=4;overflow=hidden;rotatable=0;points=[[0,0.5],[1,0.5]];portConstraint=eastwest;" parent="57OLC-S-aYihDI3UGC5i-70" vertex="1">
          <mxGeometry y="26" width="252" height="26" as="geometry" />
        </mxCell>
        <mxCell id="57OLC-S-aYihDI3UGC5i-72" value="- longitude = -26.75" style="text;align=left;verticalAlign=top;spacingLeft=4;spacingRight=4;overflow=hidden;rotatable=0;points=[[0,0.5],[1,0.5]];portConstraint=eastwest;rounded=0;shadow=0;html=0;" parent="57OLC-S-aYihDI3UGC5i-70" vertex="1">
          <mxGeometry y="52" width="252" height="26" as="geometry" />
        </mxCell>
        <mxCell id="57OLC-S-aYihDI3UGC5i-73" value="- dataHoraColeta = 2025-15-10 20:02:03" style="text;align=left;verticalAlign=top;spacingLeft=4;spacingRight=4;overflow=hidden;rotatable=0;points=[[0,0.5],[1,0.5]];portConstraint=eastwest;rounded=0;shadow=0;html=0;" parent="57OLC-S-aYihDI3UGC5i-70" vertex="1">
          <mxGeometry y="78" width="252" height="26" as="geometry" />
        </mxCell>
        <mxCell id="57OLC-S-aYihDI3UGC5i-75" value="- temperatura = 35.00" style="text;align=left;verticalAlign=top;spacingLeft=4;spacingRight=4;overflow=hidden;rotatable=0;points=[[0,0.5],[1,0.5]];portConstraint=eastwest;rounded=0;shadow=0;html=0;" parent="57OLC-S-aYihDI3UGC5i-70" vertex="1">
          <mxGeometry y="104" width="252" height="26" as="geometry" />
        </mxCell>
        <mxCell id="57OLC-S-aYihDI3UGC5i-76" value="- umidadeRelativa = 0.70" style="text;align=left;verticalAlign=top;spacingLeft=4;spacingRight=4;overflow=hidden;rotatable=0;points=[[0,0.5],[1,0.5]];portConstraint=eastwest;rounded=0;shadow=0;html=0;" parent="57OLC-S-aYihDI3UGC5i-70" vertex="1">
          <mxGeometry y="130" width="252" height="26" as="geometry" />
        </mxCell>
        <mxCell id="57OLC-S-aYihDI3UGC5i-77" value="- precipitacao = 01.20" style="text;align=left;verticalAlign=top;spacingLeft=4;spacingRight=4;overflow=hidden;rotatable=0;points=[[0,0.5],[1,0.5]];portConstraint=eastwest;rounded=0;shadow=0;html=0;" parent="57OLC-S-aYihDI3UGC5i-70" vertex="1">
          <mxGeometry y="156" width="252" height="26" as="geometry" />
        </mxCell>
        <mxCell id="57OLC-S-aYihDI3UGC5i-78" value="- velocidadeVento = 50.01" style="text;align=left;verticalAlign=top;spacingLeft=4;spacingRight=4;overflow=hidden;rotatable=0;points=[[0,0.5],[1,0.5]];portConstraint=eastwest;rounded=0;shadow=0;html=0;" parent="57OLC-S-aYihDI3UGC5i-70" vertex="1">
          <mxGeometry y="182" width="252" height="26" as="geometry" />
        </mxCell>
        <mxCell id="57OLC-S-aYihDI3UGC5i-80" value="- direcaoVento = 140.60" style="text;align=left;verticalAlign=top;spacingLeft=4;spacingRight=4;overflow=hidden;rotatable=0;points=[[0,0.5],[1,0.5]];portConstraint=eastwest;rounded=0;shadow=0;html=0;" parent="57OLC-S-aYihDI3UGC5i-70" vertex="1">
          <mxGeometry y="208" width="252" height="26" as="geometry" />
        </mxCell>
        <mxCell id="57OLC-S-aYihDI3UGC5i-81" value="- fonte = OpenWheater" style="text;align=left;verticalAlign=top;spacingLeft=4;spacingRight=4;overflow=hidden;rotatable=0;points=[[0,0.5],[1,0.5]];portConstraint=eastwest;rounded=0;shadow=0;html=0;" parent="57OLC-S-aYihDI3UGC5i-70" vertex="1">
          <mxGeometry y="234" width="252" height="26" as="geometry" />
        </mxCell>
        <mxCell id="57OLC-S-aYihDI3UGC5i-93" value="" style="edgeStyle=orthogonalEdgeStyle;rounded=0;orthogonalLoop=1;jettySize=auto;html=1;endArrow=none;endFill=0;" parent="WIyWlLk6GJQsqaUBKTNV-1" source="57OLC-S-aYihDI3UGC5i-84" target="57OLC-S-aYihDI3UGC5i-89" edge="1">
          <mxGeometry relative="1" as="geometry" />
        </mxCell>
        <mxCell id="57OLC-S-aYihDI3UGC5i-129" style="edgeStyle=orthogonalEdgeStyle;rounded=0;orthogonalLoop=1;jettySize=auto;html=1;endArrow=none;endFill=0;" parent="WIyWlLk6GJQsqaUBKTNV-1" source="57OLC-S-aYihDI3UGC5i-84" target="57OLC-S-aYihDI3UGC5i-118" edge="1">
          <mxGeometry relative="1" as="geometry" />
        </mxCell>
        <mxCell id="57OLC-S-aYihDI3UGC5i-84" value="plan1 : Plano de Acao" style="swimlane;fontStyle=0;align=center;verticalAlign=top;childLayout=stackLayout;horizontal=1;startSize=26;horizontalStack=0;resizeParent=1;resizeLast=0;collapsible=1;marginBottom=0;rounded=0;shadow=0;strokeWidth=1;" parent="WIyWlLk6GJQsqaUBKTNV-1" vertex="1">
          <mxGeometry x="1522" y="138" width="252" height="104" as="geometry">
            <mxRectangle x="550" y="140" width="160" height="26" as="alternateBounds" />
          </mxGeometry>
        </mxCell>
        <mxCell id="57OLC-S-aYihDI3UGC5i-85" value="- valorFinalEstimado = 350.00Â " style="text;align=left;verticalAlign=top;spacingLeft=4;spacingRight=4;overflow=hidden;rotatable=0;points=[[0,0.5],[1,0.5]];portConstraint=eastwest;" parent="57OLC-S-aYihDI3UGC5i-84" vertex="1">
          <mxGeometry y="26" width="252" height="26" as="geometry" />
        </mxCell>
        <mxCell id="57OLC-S-aYihDI3UGC5i-86" value="- validade = 2025-30-10" style="text;align=left;verticalAlign=top;spacingLeft=4;spacingRight=4;overflow=hidden;rotatable=0;points=[[0,0.5],[1,0.5]];portConstraint=eastwest;rounded=0;shadow=0;html=0;" parent="57OLC-S-aYihDI3UGC5i-84" vertex="1">
          <mxGeometry y="52" width="252" height="26" as="geometry" />
        </mxCell>
        <mxCell id="57OLC-S-aYihDI3UGC5i-88" value="- avaliacao = Impreciso" style="text;align=left;verticalAlign=top;spacingLeft=4;spacingRight=4;overflow=hidden;rotatable=0;points=[[0,0.5],[1,0.5]];portConstraint=eastwest;rounded=0;shadow=0;html=0;" parent="57OLC-S-aYihDI3UGC5i-84" vertex="1">
          <mxGeometry y="78" width="252" height="26" as="geometry" />
        </mxCell>
        <mxCell id="QdtZT5HFfQkPyaU6Wwgz-51" style="edgeStyle=orthogonalEdgeStyle;rounded=0;orthogonalLoop=1;jettySize=auto;html=1;entryX=0.5;entryY=0;entryDx=0;entryDy=0;endArrow=none;endFill=0;" edge="1" parent="WIyWlLk6GJQsqaUBKTNV-1" source="57OLC-S-aYihDI3UGC5i-89" target="QdtZT5HFfQkPyaU6Wwgz-0">
          <mxGeometry relative="1" as="geometry">
            <mxPoint x="2870" y="40" as="targetPoint" />
            <Array as="points">
              <mxPoint x="1648" y="-340" />
              <mxPoint x="2886" y="-340" />
            </Array>
          </mxGeometry>
        </mxCell>
        <mxCell id="QdtZT5HFfQkPyaU6Wwgz-52" style="edgeStyle=orthogonalEdgeStyle;rounded=0;orthogonalLoop=1;jettySize=auto;html=1;entryX=0.5;entryY=0;entryDx=0;entryDy=0;endArrow=none;endFill=0;" edge="1" parent="WIyWlLk6GJQsqaUBKTNV-1" source="57OLC-S-aYihDI3UGC5i-89" target="QdtZT5HFfQkPyaU6Wwgz-14">
          <mxGeometry relative="1" as="geometry">
            <Array as="points">
              <mxPoint x="1648" y="-310" />
              <mxPoint x="3155" y="-310" />
            </Array>
          </mxGeometry>
        </mxCell>
        <mxCell id="57OLC-S-aYihDI3UGC5i-89" value="acao1 : Acao" style="swimlane;fontStyle=0;align=center;verticalAlign=top;childLayout=stackLayout;horizontal=1;startSize=26;horizontalStack=0;resizeParent=1;resizeLast=0;collapsible=1;marginBottom=0;rounded=0;shadow=0;strokeWidth=1;" parent="WIyWlLk6GJQsqaUBKTNV-1" vertex="1">
          <mxGeometry x="1446" y="-278" width="404" height="338" as="geometry">
            <mxRectangle x="550" y="140" width="160" height="26" as="alternateBounds" />
          </mxGeometry>
        </mxCell>
        <mxCell id="57OLC-S-aYihDI3UGC5i-106" value="- tipo = preventiva" style="text;align=left;verticalAlign=top;spacingLeft=4;spacingRight=4;overflow=hidden;rotatable=0;points=[[0,0.5],[1,0.5]];portConstraint=eastwest;" parent="57OLC-S-aYihDI3UGC5i-89" vertex="1">
          <mxGeometry y="26" width="404" height="26" as="geometry" />
        </mxCell>
        <mxCell id="57OLC-S-aYihDI3UGC5i-107" value="- titulo : Poda de Arejamento" style="text;align=left;verticalAlign=top;spacingLeft=4;spacingRight=4;overflow=hidden;rotatable=0;points=[[0,0.5],[1,0.5]];portConstraint=eastwest;" parent="57OLC-S-aYihDI3UGC5i-89" vertex="1">
          <mxGeometry y="52" width="404" height="26" as="geometry" />
        </mxCell>
        <mxCell id="57OLC-S-aYihDI3UGC5i-108" value="- descricao : Manter copas abertas e bem ventiladas" style="text;align=left;verticalAlign=top;spacingLeft=4;spacingRight=4;overflow=hidden;rotatable=0;points=[[0,0.5],[1,0.5]];portConstraint=eastwest;" parent="57OLC-S-aYihDI3UGC5i-89" vertex="1">
          <mxGeometry y="78" width="404" height="26" as="geometry" />
        </mxCell>
        <mxCell id="57OLC-S-aYihDI3UGC5i-109" value="- prioridade : alta" style="text;align=left;verticalAlign=top;spacingLeft=4;spacingRight=4;overflow=hidden;rotatable=0;points=[[0,0.5],[1,0.5]];portConstraint=eastwest;" parent="57OLC-S-aYihDI3UGC5i-89" vertex="1">
          <mxGeometry y="104" width="404" height="26" as="geometry" />
        </mxCell>
        <mxCell id="57OLC-S-aYihDI3UGC5i-110" value="- justificativa : Reduz o tempo de molhamento foliar e a umidade relativa" style="text;align=left;verticalAlign=top;spacingLeft=4;spacingRight=4;overflow=hidden;rotatable=0;points=[[0,0.5],[1,0.5]];portConstraint=eastwest;" parent="57OLC-S-aYihDI3UGC5i-89" vertex="1">
          <mxGeometry y="130" width="404" height="26" as="geometry" />
        </mxCell>
        <mxCell id="57OLC-S-aYihDI3UGC5i-117" value="- coordenadas : POINT(-46.63, -23.55)" style="text;align=left;verticalAlign=top;spacingLeft=4;spacingRight=4;overflow=hidden;rotatable=0;points=[[0,0.5],[1,0.5]];portConstraint=eastwest;" parent="57OLC-S-aYihDI3UGC5i-89" vertex="1">
          <mxGeometry y="156" width="404" height="26" as="geometry" />
        </mxCell>
        <mxCell id="57OLC-S-aYihDI3UGC5i-113" value="- dataHoraInicio : 2025-16-10" style="text;align=left;verticalAlign=top;spacingLeft=4;spacingRight=4;overflow=hidden;rotatable=0;points=[[0,0.5],[1,0.5]];portConstraint=eastwest;" parent="57OLC-S-aYihDI3UGC5i-89" vertex="1">
          <mxGeometry y="182" width="404" height="26" as="geometry" />
        </mxCell>
        <mxCell id="57OLC-S-aYihDI3UGC5i-115" value="- dataHoraFim: 2025-17-10" style="text;align=left;verticalAlign=top;spacingLeft=4;spacingRight=4;overflow=hidden;rotatable=0;points=[[0,0.5],[1,0.5]];portConstraint=eastwest;" parent="57OLC-S-aYihDI3UGC5i-89" vertex="1">
          <mxGeometry y="208" width="404" height="26" as="geometry" />
        </mxCell>
        <mxCell id="57OLC-S-aYihDI3UGC5i-112" value="- valorEstimado : 300.00" style="text;align=left;verticalAlign=top;spacingLeft=4;spacingRight=4;overflow=hidden;rotatable=0;points=[[0,0.5],[1,0.5]];portConstraint=eastwest;" parent="57OLC-S-aYihDI3UGC5i-89" vertex="1">
          <mxGeometry y="234" width="404" height="26" as="geometry" />
        </mxCell>
        <mxCell id="57OLC-S-aYihDI3UGC5i-111" value="- fonte : SINAPI" style="text;align=left;verticalAlign=top;spacingLeft=4;spacingRight=4;overflow=hidden;rotatable=0;points=[[0,0.5],[1,0.5]];portConstraint=eastwest;" parent="57OLC-S-aYihDI3UGC5i-89" vertex="1">
          <mxGeometry y="260" width="404" height="26" as="geometry" />
        </mxCell>
        <mxCell id="QdtZT5HFfQkPyaU6Wwgz-49" style="edgeStyle=orthogonalEdgeStyle;rounded=0;orthogonalLoop=1;jettySize=auto;html=1;entryX=0.25;entryY=0;entryDx=0;entryDy=0;endArrow=none;endFill=0;" edge="1" parent="WIyWlLk6GJQsqaUBKTNV-1" source="57OLC-S-aYihDI3UGC5i-118" target="QdtZT5HFfQkPyaU6Wwgz-0">
          <mxGeometry relative="1" as="geometry" />
        </mxCell>
        <mxCell id="QdtZT5HFfQkPyaU6Wwgz-50" style="edgeStyle=orthogonalEdgeStyle;rounded=0;orthogonalLoop=1;jettySize=auto;html=1;entryX=0.25;entryY=0;entryDx=0;entryDy=0;endArrow=none;endFill=0;" edge="1" parent="WIyWlLk6GJQsqaUBKTNV-1" source="57OLC-S-aYihDI3UGC5i-118" target="QdtZT5HFfQkPyaU6Wwgz-14">
          <mxGeometry relative="1" as="geometry">
            <mxPoint x="2500" y="-100" as="targetPoint" />
            <Array as="points">
              <mxPoint x="3093" y="-130" />
            </Array>
          </mxGeometry>
        </mxCell>
        <mxCell id="57OLC-S-aYihDI3UGC5i-118" value="acao2 : Acao" style="swimlane;fontStyle=0;align=center;verticalAlign=top;childLayout=stackLayout;horizontal=1;startSize=26;horizontalStack=0;resizeParent=1;resizeLast=0;collapsible=1;marginBottom=0;rounded=0;shadow=0;strokeWidth=1;" parent="WIyWlLk6GJQsqaUBKTNV-1" vertex="1">
          <mxGeometry x="1866" y="-278" width="524" height="338" as="geometry">
            <mxRectangle x="550" y="140" width="160" height="26" as="alternateBounds" />
          </mxGeometry>
        </mxCell>
        <mxCell id="57OLC-S-aYihDI3UGC5i-119" value="- tipo = preventiva" style="text;align=left;verticalAlign=top;spacingLeft=4;spacingRight=4;overflow=hidden;rotatable=0;points=[[0,0.5],[1,0.5]];portConstraint=eastwest;" parent="57OLC-S-aYihDI3UGC5i-118" vertex="1">
          <mxGeometry y="26" width="524" height="26" as="geometry" />
        </mxCell>
        <mxCell id="57OLC-S-aYihDI3UGC5i-120" value="- titulo : AplicaÃ§Ã£o de Fungicidas CÃºpricosÂ " style="text;align=left;verticalAlign=top;spacingLeft=4;spacingRight=4;overflow=hidden;rotatable=0;points=[[0,0.5],[1,0.5]];portConstraint=eastwest;" parent="57OLC-S-aYihDI3UGC5i-118" vertex="1">
          <mxGeometry y="52" width="524" height="26" as="geometry" />
        </mxCell>
        <mxCell id="57OLC-S-aYihDI3UGC5i-121" value="- descricao :Â Revestem a superfÃ­cie dos frutos e folhas, impedindo a germinaÃ§Ã£o dos esporos" style="text;align=left;verticalAlign=top;spacingLeft=4;spacingRight=4;overflow=hidden;rotatable=0;points=[[0,0.5],[1,0.5]];portConstraint=eastwest;" parent="57OLC-S-aYihDI3UGC5i-118" vertex="1">
          <mxGeometry y="78" width="524" height="26" as="geometry" />
        </mxCell>
        <mxCell id="57OLC-S-aYihDI3UGC5i-122" value="- prioridade : mÃ©dia" style="text;align=left;verticalAlign=top;spacingLeft=4;spacingRight=4;overflow=hidden;rotatable=0;points=[[0,0.5],[1,0.5]];portConstraint=eastwest;" parent="57OLC-S-aYihDI3UGC5i-118" vertex="1">
          <mxGeometry y="104" width="524" height="26" as="geometry" />
        </mxCell>
        <mxCell id="57OLC-S-aYihDI3UGC5i-123" value="- justificativa : Fungicidas de contato tÃªm efeito protetor; devem ser aplicados antes das chuvas" style="text;align=left;verticalAlign=top;spacingLeft=4;spacingRight=4;overflow=hidden;rotatable=0;points=[[0,0.5],[1,0.5]];portConstraint=eastwest;" parent="57OLC-S-aYihDI3UGC5i-118" vertex="1">
          <mxGeometry y="130" width="524" height="26" as="geometry" />
        </mxCell>
        <mxCell id="57OLC-S-aYihDI3UGC5i-124" value="- coordenadas : POINT(-46.63, -23.55)" style="text;align=left;verticalAlign=top;spacingLeft=4;spacingRight=4;overflow=hidden;rotatable=0;points=[[0,0.5],[1,0.5]];portConstraint=eastwest;" parent="57OLC-S-aYihDI3UGC5i-118" vertex="1">
          <mxGeometry y="156" width="524" height="26" as="geometry" />
        </mxCell>
        <mxCell id="57OLC-S-aYihDI3UGC5i-125" value="- dataHoraInicio : 2025-16-10" style="text;align=left;verticalAlign=top;spacingLeft=4;spacingRight=4;overflow=hidden;rotatable=0;points=[[0,0.5],[1,0.5]];portConstraint=eastwest;" parent="57OLC-S-aYihDI3UGC5i-118" vertex="1">
          <mxGeometry y="182" width="524" height="26" as="geometry" />
        </mxCell>
        <mxCell id="57OLC-S-aYihDI3UGC5i-126" value="- dataHoraFim: 2025-17-10" style="text;align=left;verticalAlign=top;spacingLeft=4;spacingRight=4;overflow=hidden;rotatable=0;points=[[0,0.5],[1,0.5]];portConstraint=eastwest;" parent="57OLC-S-aYihDI3UGC5i-118" vertex="1">
          <mxGeometry y="208" width="524" height="26" as="geometry" />
        </mxCell>
        <mxCell id="57OLC-S-aYihDI3UGC5i-127" value="- valorEstimado : 50.00" style="text;align=left;verticalAlign=top;spacingLeft=4;spacingRight=4;overflow=hidden;rotatable=0;points=[[0,0.5],[1,0.5]];portConstraint=eastwest;" parent="57OLC-S-aYihDI3UGC5i-118" vertex="1">
          <mxGeometry y="234" width="524" height="26" as="geometry" />
        </mxCell>
        <mxCell id="57OLC-S-aYihDI3UGC5i-128" value="- fonte : CONAB" style="text;align=left;verticalAlign=top;spacingLeft=4;spacingRight=4;overflow=hidden;rotatable=0;points=[[0,0.5],[1,0.5]];portConstraint=eastwest;" parent="57OLC-S-aYihDI3UGC5i-118" vertex="1">
          <mxGeometry y="260" width="524" height="26" as="geometry" />
        </mxCell>
        <mxCell id="57OLC-S-aYihDI3UGC5i-136" style="edgeStyle=orthogonalEdgeStyle;rounded=0;orthogonalLoop=1;jettySize=auto;html=1;endArrow=none;endFill=0;" parent="WIyWlLk6GJQsqaUBKTNV-1" source="57OLC-S-aYihDI3UGC5i-132" target="57OLC-S-aYihDI3UGC5i-49" edge="1">
          <mxGeometry relative="1" as="geometry" />
        </mxCell>
        <mxCell id="57OLC-S-aYihDI3UGC5i-148" style="edgeStyle=orthogonalEdgeStyle;rounded=0;orthogonalLoop=1;jettySize=auto;html=1;endArrow=none;endFill=0;" parent="WIyWlLk6GJQsqaUBKTNV-1" source="57OLC-S-aYihDI3UGC5i-132" target="57OLC-S-aYihDI3UGC5i-137" edge="1">
          <mxGeometry relative="1" as="geometry" />
        </mxCell>
        <mxCell id="57OLC-S-aYihDI3UGC5i-160" style="edgeStyle=orthogonalEdgeStyle;rounded=0;orthogonalLoop=1;jettySize=auto;html=1;endArrow=none;endFill=0;" parent="WIyWlLk6GJQsqaUBKTNV-1" source="57OLC-S-aYihDI3UGC5i-132" target="57OLC-S-aYihDI3UGC5i-149" edge="1">
          <mxGeometry relative="1" as="geometry" />
        </mxCell>
        <mxCell id="57OLC-S-aYihDI3UGC5i-132" value="plan1 : Plano de Acao" style="swimlane;fontStyle=0;align=center;verticalAlign=top;childLayout=stackLayout;horizontal=1;startSize=26;horizontalStack=0;resizeParent=1;resizeLast=0;collapsible=1;marginBottom=0;rounded=0;shadow=0;strokeWidth=1;" parent="WIyWlLk6GJQsqaUBKTNV-1" vertex="1">
          <mxGeometry x="1510" y="430.25" width="252" height="104" as="geometry">
            <mxRectangle x="550" y="140" width="160" height="26" as="alternateBounds" />
          </mxGeometry>
        </mxCell>
        <mxCell id="57OLC-S-aYihDI3UGC5i-133" value="- valorFinalEstimado = 545.00" style="text;align=left;verticalAlign=top;spacingLeft=4;spacingRight=4;overflow=hidden;rotatable=0;points=[[0,0.5],[1,0.5]];portConstraint=eastwest;" parent="57OLC-S-aYihDI3UGC5i-132" vertex="1">
          <mxGeometry y="26" width="252" height="26" as="geometry" />
        </mxCell>
        <mxCell id="57OLC-S-aYihDI3UGC5i-134" value="- validade = 2025-15-10" style="text;align=left;verticalAlign=top;spacingLeft=4;spacingRight=4;overflow=hidden;rotatable=0;points=[[0,0.5],[1,0.5]];portConstraint=eastwest;rounded=0;shadow=0;html=0;" parent="57OLC-S-aYihDI3UGC5i-132" vertex="1">
          <mxGeometry y="52" width="252" height="26" as="geometry" />
        </mxCell>
        <mxCell id="57OLC-S-aYihDI3UGC5i-135" value="- avaliacao = Bom" style="text;align=left;verticalAlign=top;spacingLeft=4;spacingRight=4;overflow=hidden;rotatable=0;points=[[0,0.5],[1,0.5]];portConstraint=eastwest;rounded=0;shadow=0;html=0;" parent="57OLC-S-aYihDI3UGC5i-132" vertex="1">
          <mxGeometry y="78" width="252" height="26" as="geometry" />
        </mxCell>
        <mxCell id="57OLC-S-aYihDI3UGC5i-137" value="acao3 : Acao" style="swimlane;fontStyle=0;align=center;verticalAlign=top;childLayout=stackLayout;horizontal=1;startSize=26;horizontalStack=0;resizeParent=1;resizeLast=0;collapsible=1;marginBottom=0;rounded=0;shadow=0;strokeWidth=1;" parent="WIyWlLk6GJQsqaUBKTNV-1" vertex="1">
          <mxGeometry x="1510" y="590" width="520" height="338" as="geometry">
            <mxRectangle x="550" y="140" width="160" height="26" as="alternateBounds" />
          </mxGeometry>
        </mxCell>
        <mxCell id="57OLC-S-aYihDI3UGC5i-138" value="- tipo = corretiva" style="text;align=left;verticalAlign=top;spacingLeft=4;spacingRight=4;overflow=hidden;rotatable=0;points=[[0,0.5],[1,0.5]];portConstraint=eastwest;" parent="57OLC-S-aYihDI3UGC5i-137" vertex="1">
          <mxGeometry y="26" width="520" height="26" as="geometry" />
        </mxCell>
        <mxCell id="57OLC-S-aYihDI3UGC5i-139" value="- titulo : Retirada de frutos infectados na planta" style="text;align=left;verticalAlign=top;spacingLeft=4;spacingRight=4;overflow=hidden;rotatable=0;points=[[0,0.5],[1,0.5]];portConstraint=eastwest;" parent="57OLC-S-aYihDI3UGC5i-137" vertex="1">
          <mxGeometry y="52" width="520" height="26" as="geometry" />
        </mxCell>
        <mxCell id="57OLC-S-aYihDI3UGC5i-140" value="- descricao : Frutos com lesÃµes visÃ­veis devem ser colhidos e destruÃ­dos" style="text;align=left;verticalAlign=top;spacingLeft=4;spacingRight=4;overflow=hidden;rotatable=0;points=[[0,0.5],[1,0.5]];portConstraint=eastwest;" parent="57OLC-S-aYihDI3UGC5i-137" vertex="1">
          <mxGeometry y="78" width="520" height="26" as="geometry" />
        </mxCell>
        <mxCell id="57OLC-S-aYihDI3UGC5i-141" value="- prioridade : urgente" style="text;align=left;verticalAlign=top;spacingLeft=4;spacingRight=4;overflow=hidden;rotatable=0;points=[[0,0.5],[1,0.5]];portConstraint=eastwest;" parent="57OLC-S-aYihDI3UGC5i-137" vertex="1">
          <mxGeometry y="104" width="520" height="26" as="geometry" />
        </mxCell>
        <mxCell id="57OLC-S-aYihDI3UGC5i-142" value="- justificativa : Evita que os pseudotÃ©cios maduros liberem esporos e contaminem frutos sadios" style="text;align=left;verticalAlign=top;spacingLeft=4;spacingRight=4;overflow=hidden;rotatable=0;points=[[0,0.5],[1,0.5]];portConstraint=eastwest;" parent="57OLC-S-aYihDI3UGC5i-137" vertex="1">
          <mxGeometry y="130" width="520" height="26" as="geometry" />
        </mxCell>
        <mxCell id="57OLC-S-aYihDI3UGC5i-143" value="- coordenadas :POINT(-49.12, -26.85)" style="text;align=left;verticalAlign=top;spacingLeft=4;spacingRight=4;overflow=hidden;rotatable=0;points=[[0,0.5],[1,0.5]];portConstraint=eastwest;" parent="57OLC-S-aYihDI3UGC5i-137" vertex="1">
          <mxGeometry y="156" width="520" height="26" as="geometry" />
        </mxCell>
        <mxCell id="57OLC-S-aYihDI3UGC5i-144" value="- dataHoraInicio : 2025-15-10" style="text;align=left;verticalAlign=top;spacingLeft=4;spacingRight=4;overflow=hidden;rotatable=0;points=[[0,0.5],[1,0.5]];portConstraint=eastwest;" parent="57OLC-S-aYihDI3UGC5i-137" vertex="1">
          <mxGeometry y="182" width="520" height="26" as="geometry" />
        </mxCell>
        <mxCell id="57OLC-S-aYihDI3UGC5i-145" value="- dataHoraFim: 2025-15-10" style="text;align=left;verticalAlign=top;spacingLeft=4;spacingRight=4;overflow=hidden;rotatable=0;points=[[0,0.5],[1,0.5]];portConstraint=eastwest;" parent="57OLC-S-aYihDI3UGC5i-137" vertex="1">
          <mxGeometry y="208" width="520" height="26" as="geometry" />
        </mxCell>
        <mxCell id="57OLC-S-aYihDI3UGC5i-146" value="- valorEstimado : 20.00" style="text;align=left;verticalAlign=top;spacingLeft=4;spacingRight=4;overflow=hidden;rotatable=0;points=[[0,0.5],[1,0.5]];portConstraint=eastwest;" parent="57OLC-S-aYihDI3UGC5i-137" vertex="1">
          <mxGeometry y="234" width="520" height="26" as="geometry" />
        </mxCell>
        <mxCell id="57OLC-S-aYihDI3UGC5i-147" value="- fonte : regra de negÃ³cio" style="text;align=left;verticalAlign=top;spacingLeft=4;spacingRight=4;overflow=hidden;rotatable=0;points=[[0,0.5],[1,0.5]];portConstraint=eastwest;" parent="57OLC-S-aYihDI3UGC5i-137" vertex="1">
          <mxGeometry y="260" width="520" height="26" as="geometry" />
        </mxCell>
        <mxCell id="57OLC-S-aYihDI3UGC5i-149" value="acao4 : Acao" style="swimlane;fontStyle=0;align=center;verticalAlign=top;childLayout=stackLayout;horizontal=1;startSize=26;horizontalStack=0;resizeParent=1;resizeLast=0;collapsible=1;marginBottom=0;rounded=0;shadow=0;strokeWidth=1;" parent="WIyWlLk6GJQsqaUBKTNV-1" vertex="1">
          <mxGeometry x="2050" y="590" width="650" height="338" as="geometry">
            <mxRectangle x="550" y="140" width="160" height="26" as="alternateBounds" />
          </mxGeometry>
        </mxCell>
        <mxCell id="57OLC-S-aYihDI3UGC5i-150" value="- tipo = corretiva" style="text;align=left;verticalAlign=top;spacingLeft=4;spacingRight=4;overflow=hidden;rotatable=0;points=[[0,0.5],[1,0.5]];portConstraint=eastwest;" parent="57OLC-S-aYihDI3UGC5i-149" vertex="1">
          <mxGeometry y="26" width="650" height="26" as="geometry" />
        </mxCell>
        <mxCell id="57OLC-S-aYihDI3UGC5i-151" value="- titulo : Poda de ramos com alta incidÃªncia de lesÃµes" style="text;align=left;verticalAlign=top;spacingLeft=4;spacingRight=4;overflow=hidden;rotatable=0;points=[[0,0.5],[1,0.5]];portConstraint=eastwest;" parent="57OLC-S-aYihDI3UGC5i-149" vertex="1">
          <mxGeometry y="52" width="650" height="26" as="geometry" />
        </mxCell>
        <mxCell id="57OLC-S-aYihDI3UGC5i-152" value="- descricao : Remover ramos muito infectados" style="text;align=left;verticalAlign=top;spacingLeft=4;spacingRight=4;overflow=hidden;rotatable=0;points=[[0,0.5],[1,0.5]];portConstraint=eastwest;" parent="57OLC-S-aYihDI3UGC5i-149" vertex="1">
          <mxGeometry y="78" width="650" height="26" as="geometry" />
        </mxCell>
        <mxCell id="57OLC-S-aYihDI3UGC5i-153" value="- prioridade : urgente" style="text;align=left;verticalAlign=top;spacingLeft=4;spacingRight=4;overflow=hidden;rotatable=0;points=[[0,0.5],[1,0.5]];portConstraint=eastwest;" parent="57OLC-S-aYihDI3UGC5i-149" vertex="1">
          <mxGeometry y="104" width="650" height="26" as="geometry" />
        </mxCell>
        <mxCell id="57OLC-S-aYihDI3UGC5i-154" value="- justificativa :Â Reduz a densidade de folhas e frutos com inÃ³culo ativo, melhora ventilaÃ§Ã£o e penetraÃ§Ã£o de fungicidas." style="text;align=left;verticalAlign=top;spacingLeft=4;spacingRight=4;overflow=hidden;rotatable=0;points=[[0,0.5],[1,0.5]];portConstraint=eastwest;" parent="57OLC-S-aYihDI3UGC5i-149" vertex="1">
          <mxGeometry y="130" width="650" height="26" as="geometry" />
        </mxCell>
        <mxCell id="57OLC-S-aYihDI3UGC5i-155" value="- coordenadas :POINT(-49.12, -26.85)" style="text;align=left;verticalAlign=top;spacingLeft=4;spacingRight=4;overflow=hidden;rotatable=0;points=[[0,0.5],[1,0.5]];portConstraint=eastwest;" parent="57OLC-S-aYihDI3UGC5i-149" vertex="1">
          <mxGeometry y="156" width="650" height="26" as="geometry" />
        </mxCell>
        <mxCell id="57OLC-S-aYihDI3UGC5i-156" value="- dataHoraInicio : 2025-15-10" style="text;align=left;verticalAlign=top;spacingLeft=4;spacingRight=4;overflow=hidden;rotatable=0;points=[[0,0.5],[1,0.5]];portConstraint=eastwest;" parent="57OLC-S-aYihDI3UGC5i-149" vertex="1">
          <mxGeometry y="182" width="650" height="26" as="geometry" />
        </mxCell>
        <mxCell id="57OLC-S-aYihDI3UGC5i-157" value="- dataHoraFim: 2025-16-10" style="text;align=left;verticalAlign=top;spacingLeft=4;spacingRight=4;overflow=hidden;rotatable=0;points=[[0,0.5],[1,0.5]];portConstraint=eastwest;" parent="57OLC-S-aYihDI3UGC5i-149" vertex="1">
          <mxGeometry y="208" width="650" height="26" as="geometry" />
        </mxCell>
        <mxCell id="57OLC-S-aYihDI3UGC5i-158" value="- valorEstimado : 525.00" style="text;align=left;verticalAlign=top;spacingLeft=4;spacingRight=4;overflow=hidden;rotatable=0;points=[[0,0.5],[1,0.5]];portConstraint=eastwest;" parent="57OLC-S-aYihDI3UGC5i-149" vertex="1">
          <mxGeometry y="234" width="650" height="26" as="geometry" />
        </mxCell>
        <mxCell id="57OLC-S-aYihDI3UGC5i-159" value="- fonte : SINAPI" style="text;align=left;verticalAlign=top;spacingLeft=4;spacingRight=4;overflow=hidden;rotatable=0;points=[[0,0.5],[1,0.5]];portConstraint=eastwest;" parent="57OLC-S-aYihDI3UGC5i-149" vertex="1">
          <mxGeometry y="260" width="650" height="26" as="geometry" />
        </mxCell>
        <mxCell id="QdtZT5HFfQkPyaU6Wwgz-0" value="temphis1 : Dado Temporal Historico" style="swimlane;fontStyle=0;align=center;verticalAlign=top;childLayout=stackLayout;horizontal=1;startSize=26;horizontalStack=0;resizeParent=1;resizeLast=0;collapsible=1;marginBottom=0;rounded=0;shadow=0;strokeWidth=1;" vertex="1" parent="WIyWlLk6GJQsqaUBKTNV-1">
          <mxGeometry x="2760" y="52" width="252" height="220" as="geometry">
            <mxRectangle x="550" y="140" width="160" height="26" as="alternateBounds" />
          </mxGeometry>
        </mxCell>
        <mxCell id="QdtZT5HFfQkPyaU6Wwgz-1" value="- latitude = -40.60" style="text;align=left;verticalAlign=top;spacingLeft=4;spacingRight=4;overflow=hidden;rotatable=0;points=[[0,0.5],[1,0.5]];portConstraint=eastwest;" vertex="1" parent="QdtZT5HFfQkPyaU6Wwgz-0">
          <mxGeometry y="26" width="252" height="26" as="geometry" />
        </mxCell>
        <mxCell id="QdtZT5HFfQkPyaU6Wwgz-2" value="- longitude = -23.60" style="text;align=left;verticalAlign=top;spacingLeft=4;spacingRight=4;overflow=hidden;rotatable=0;points=[[0,0.5],[1,0.5]];portConstraint=eastwest;rounded=0;shadow=0;html=0;" vertex="1" parent="QdtZT5HFfQkPyaU6Wwgz-0">
          <mxGeometry y="52" width="252" height="26" as="geometry" />
        </mxCell>
        <mxCell id="QdtZT5HFfQkPyaU6Wwgz-3" value="- dataHoraColeta = 2025-16-10 19:48:18" style="text;align=left;verticalAlign=top;spacingLeft=4;spacingRight=4;overflow=hidden;rotatable=0;points=[[0,0.5],[1,0.5]];portConstraint=eastwest;rounded=0;shadow=0;html=0;" vertex="1" parent="QdtZT5HFfQkPyaU6Wwgz-0">
          <mxGeometry y="78" width="252" height="26" as="geometry" />
        </mxCell>
        <mxCell id="QdtZT5HFfQkPyaU6Wwgz-11" value="- mediaTemperatura = 28.00" style="text;align=left;verticalAlign=top;spacingLeft=4;spacingRight=4;overflow=hidden;rotatable=0;points=[[0,0.5],[1,0.5]];portConstraint=eastwest;rounded=0;shadow=0;html=0;" vertex="1" parent="QdtZT5HFfQkPyaU6Wwgz-0">
          <mxGeometry y="104" width="252" height="26" as="geometry" />
        </mxCell>
        <mxCell id="QdtZT5HFfQkPyaU6Wwgz-12" value="- mediaUmidade = 0.6" style="text;align=left;verticalAlign=top;spacingLeft=4;spacingRight=4;overflow=hidden;rotatable=0;points=[[0,0.5],[1,0.5]];portConstraint=eastwest;rounded=0;shadow=0;html=0;" vertex="1" parent="QdtZT5HFfQkPyaU6Wwgz-0">
          <mxGeometry y="130" width="252" height="26" as="geometry" />
        </mxCell>
        <mxCell id="QdtZT5HFfQkPyaU6Wwgz-13" value="- mediaPrecipitacao = 0.8" style="text;align=left;verticalAlign=top;spacingLeft=4;spacingRight=4;overflow=hidden;rotatable=0;points=[[0,0.5],[1,0.5]];portConstraint=eastwest;rounded=0;shadow=0;html=0;" vertex="1" parent="QdtZT5HFfQkPyaU6Wwgz-0">
          <mxGeometry y="156" width="252" height="26" as="geometry" />
        </mxCell>
        <mxCell id="QdtZT5HFfQkPyaU6Wwgz-10" value="- fonte = Nasa Power API" style="text;align=left;verticalAlign=top;spacingLeft=4;spacingRight=4;overflow=hidden;rotatable=0;points=[[0,0.5],[1,0.5]];portConstraint=eastwest;rounded=0;shadow=0;html=0;" vertex="1" parent="QdtZT5HFfQkPyaU6Wwgz-0">
          <mxGeometry y="182" width="252" height="26" as="geometry" />
        </mxCell>
        <mxCell id="QdtZT5HFfQkPyaU6Wwgz-14" value="tempprev1 : Dado Temporal Previsivo" style="swimlane;fontStyle=0;align=center;verticalAlign=top;childLayout=stackLayout;horizontal=1;startSize=26;horizontalStack=0;resizeParent=1;resizeLast=0;collapsible=1;marginBottom=0;rounded=0;shadow=0;strokeWidth=1;" vertex="1" parent="WIyWlLk6GJQsqaUBKTNV-1">
          <mxGeometry x="3030" y="52" width="250" height="316" as="geometry">
            <mxRectangle x="550" y="140" width="160" height="26" as="alternateBounds" />
          </mxGeometry>
        </mxCell>
        <mxCell id="QdtZT5HFfQkPyaU6Wwgz-15" value="- latitude = -40.60" style="text;align=left;verticalAlign=top;spacingLeft=4;spacingRight=4;overflow=hidden;rotatable=0;points=[[0,0.5],[1,0.5]];portConstraint=eastwest;" vertex="1" parent="QdtZT5HFfQkPyaU6Wwgz-14">
          <mxGeometry y="26" width="250" height="26" as="geometry" />
        </mxCell>
        <mxCell id="QdtZT5HFfQkPyaU6Wwgz-16" value="- longitude = -23.60" style="text;align=left;verticalAlign=top;spacingLeft=4;spacingRight=4;overflow=hidden;rotatable=0;points=[[0,0.5],[1,0.5]];portConstraint=eastwest;rounded=0;shadow=0;html=0;" vertex="1" parent="QdtZT5HFfQkPyaU6Wwgz-14">
          <mxGeometry y="52" width="250" height="26" as="geometry" />
        </mxCell>
        <mxCell id="QdtZT5HFfQkPyaU6Wwgz-28" value="- temperatura = 25.00" style="text;align=left;verticalAlign=top;spacingLeft=4;spacingRight=4;overflow=hidden;rotatable=0;points=[[0,0.5],[1,0.5]];portConstraint=eastwest;rounded=0;shadow=0;html=0;" vertex="1" parent="QdtZT5HFfQkPyaU6Wwgz-14">
          <mxGeometry y="78" width="250" height="26" as="geometry" />
        </mxCell>
        <mxCell id="QdtZT5HFfQkPyaU6Wwgz-32" value="- direcaoVento = 190.00" style="text;align=left;verticalAlign=top;spacingLeft=4;spacingRight=4;overflow=hidden;rotatable=0;points=[[0,0.5],[1,0.5]];portConstraint=eastwest;rounded=0;shadow=0;html=0;" vertex="1" parent="QdtZT5HFfQkPyaU6Wwgz-14">
          <mxGeometry y="104" width="250" height="26" as="geometry" />
        </mxCell>
        <mxCell id="QdtZT5HFfQkPyaU6Wwgz-31" value="- velocidadeVento = 42.00" style="text;align=left;verticalAlign=top;spacingLeft=4;spacingRight=4;overflow=hidden;rotatable=0;points=[[0,0.5],[1,0.5]];portConstraint=eastwest;rounded=0;shadow=0;html=0;" vertex="1" parent="QdtZT5HFfQkPyaU6Wwgz-14">
          <mxGeometry y="130" width="250" height="26" as="geometry" />
        </mxCell>
        <mxCell id="QdtZT5HFfQkPyaU6Wwgz-30" value="- precipitacao = 01.20" style="text;align=left;verticalAlign=top;spacingLeft=4;spacingRight=4;overflow=hidden;rotatable=0;points=[[0,0.5],[1,0.5]];portConstraint=eastwest;rounded=0;shadow=0;html=0;" vertex="1" parent="QdtZT5HFfQkPyaU6Wwgz-14">
          <mxGeometry y="156" width="250" height="26" as="geometry" />
        </mxCell>
        <mxCell id="QdtZT5HFfQkPyaU6Wwgz-33" value="- probPrecipitacao = 0.6" style="text;align=left;verticalAlign=top;spacingLeft=4;spacingRight=4;overflow=hidden;rotatable=0;points=[[0,0.5],[1,0.5]];portConstraint=eastwest;rounded=0;shadow=0;html=0;" vertex="1" parent="QdtZT5HFfQkPyaU6Wwgz-14">
          <mxGeometry y="182" width="250" height="26" as="geometry" />
        </mxCell>
        <mxCell id="QdtZT5HFfQkPyaU6Wwgz-29" value="- umidadeRelativa = 0.55" style="text;align=left;verticalAlign=top;spacingLeft=4;spacingRight=4;overflow=hidden;rotatable=0;points=[[0,0.5],[1,0.5]];portConstraint=eastwest;rounded=0;shadow=0;html=0;" vertex="1" parent="QdtZT5HFfQkPyaU6Wwgz-14">
          <mxGeometry y="208" width="250" height="26" as="geometry" />
        </mxCell>
        <mxCell id="QdtZT5HFfQkPyaU6Wwgz-17" value="- dataHoraColeta = 2025-16-10 19:48:18" style="text;align=left;verticalAlign=top;spacingLeft=4;spacingRight=4;overflow=hidden;rotatable=0;points=[[0,0.5],[1,0.5]];portConstraint=eastwest;rounded=0;shadow=0;html=0;" vertex="1" parent="QdtZT5HFfQkPyaU6Wwgz-14">
          <mxGeometry y="234" width="250" height="26" as="geometry" />
        </mxCell>
        <mxCell id="QdtZT5HFfQkPyaU6Wwgz-21" value="- fonte = Nasa Power API" style="text;align=left;verticalAlign=top;spacingLeft=4;spacingRight=4;overflow=hidden;rotatable=0;points=[[0,0.5],[1,0.5]];portConstraint=eastwest;rounded=0;shadow=0;html=0;" vertex="1" parent="QdtZT5HFfQkPyaU6Wwgz-14">
          <mxGeometry y="260" width="250" height="50" as="geometry" />
        </mxCell>
        <mxCell id="QdtZT5HFfQkPyaU6Wwgz-38" style="edgeStyle=orthogonalEdgeStyle;rounded=0;orthogonalLoop=1;jettySize=auto;html=1;endArrow=none;endFill=0;exitX=1;exitY=0.5;exitDx=0;exitDy=0;" edge="1" parent="WIyWlLk6GJQsqaUBKTNV-1" source="57OLC-S-aYihDI3UGC5i-155" target="QdtZT5HFfQkPyaU6Wwgz-0">
          <mxGeometry relative="1" as="geometry">
            <mxPoint x="3566" y="940" as="targetPoint" />
            <mxPoint x="2380" y="1248" as="sourcePoint" />
            <Array as="points">
              <mxPoint x="2956" y="759" />
            </Array>
          </mxGeometry>
        </mxCell>
        <mxCell id="QdtZT5HFfQkPyaU6Wwgz-41" style="edgeStyle=orthogonalEdgeStyle;rounded=0;orthogonalLoop=1;jettySize=auto;html=1;endArrow=none;endFill=0;exitX=0.5;exitY=1;exitDx=0;exitDy=0;" edge="1" parent="WIyWlLk6GJQsqaUBKTNV-1" source="57OLC-S-aYihDI3UGC5i-137">
          <mxGeometry relative="1" as="geometry">
            <mxPoint x="2890" y="272" as="targetPoint" />
            <mxPoint x="2830" y="1158" as="sourcePoint" />
            <Array as="points">
              <mxPoint x="1770" y="1000" />
              <mxPoint x="2890" y="1000" />
              <mxPoint x="2890" y="272" />
            </Array>
          </mxGeometry>
        </mxCell>
        <mxCell id="QdtZT5HFfQkPyaU6Wwgz-45" style="edgeStyle=orthogonalEdgeStyle;rounded=0;orthogonalLoop=1;jettySize=auto;html=1;endArrow=none;endFill=0;exitX=1;exitY=0.5;exitDx=0;exitDy=0;" edge="1" parent="WIyWlLk6GJQsqaUBKTNV-1" source="57OLC-S-aYihDI3UGC5i-153">
          <mxGeometry relative="1" as="geometry">
            <mxPoint x="3210" y="368" as="targetPoint" />
            <mxPoint x="2950" y="819" as="sourcePoint" />
            <Array as="points">
              <mxPoint x="3210" y="707" />
            </Array>
          </mxGeometry>
        </mxCell>
        <mxCell id="QdtZT5HFfQkPyaU6Wwgz-46" style="edgeStyle=orthogonalEdgeStyle;rounded=0;orthogonalLoop=1;jettySize=auto;html=1;endArrow=none;endFill=0;exitX=0.5;exitY=1;exitDx=0;exitDy=0;entryX=0.5;entryY=1;entryDx=0;entryDy=0;" edge="1" parent="WIyWlLk6GJQsqaUBKTNV-1" source="57OLC-S-aYihDI3UGC5i-137" target="QdtZT5HFfQkPyaU6Wwgz-14">
          <mxGeometry relative="1" as="geometry">
            <mxPoint x="3180" y="250" as="targetPoint" />
            <mxPoint x="1970" y="1118" as="sourcePoint" />
            <Array as="points">
              <mxPoint x="1770" y="1040" />
              <mxPoint x="3155" y="1040" />
            </Array>
          </mxGeometry>
        </mxCell>
        <mxCell id="QdtZT5HFfQkPyaU6Wwgz-75" value="" style="edgeStyle=orthogonalEdgeStyle;rounded=0;orthogonalLoop=1;jettySize=auto;html=1;endArrow=none;endFill=0;" edge="1" parent="WIyWlLk6GJQsqaUBKTNV-1" source="QdtZT5HFfQkPyaU6Wwgz-53" target="QdtZT5HFfQkPyaU6Wwgz-68">
          <mxGeometry relative="1" as="geometry" />
        </mxCell>
        <mxCell id="QdtZT5HFfQkPyaU6Wwgz-53" value="bib1 : Biblioteca de Doencas" style="swimlane;fontStyle=2;align=center;verticalAlign=top;childLayout=stackLayout;horizontal=1;startSize=26;horizontalStack=0;resizeParent=1;resizeLast=0;collapsible=1;marginBottom=0;rounded=0;shadow=0;strokeWidth=1;" vertex="1" parent="WIyWlLk6GJQsqaUBKTNV-1">
          <mxGeometry x="-750" y="120" width="740" height="190" as="geometry">
            <mxRectangle x="230" y="140" width="160" height="26" as="alternateBounds" />
          </mxGeometry>
        </mxCell>
        <mxCell id="QdtZT5HFfQkPyaU6Wwgz-54" value="- nome = Pinta Preta" style="text;align=left;verticalAlign=top;spacingLeft=4;spacingRight=4;overflow=hidden;rotatable=0;points=[[0,0.5],[1,0.5]];portConstraint=eastwest;" vertex="1" parent="QdtZT5HFfQkPyaU6Wwgz-53">
          <mxGeometry y="26" width="740" height="26" as="geometry" />
        </mxCell>
        <mxCell id="QdtZT5HFfQkPyaU6Wwgz-64" value="- descricao =Â DoenÃ§a fÃºngica que causa manchas negras nas frutas, folhas e ramos, prejudicando a aparÃªncia e a qualidade dos frutos." style="text;align=left;verticalAlign=top;spacingLeft=4;spacingRight=4;overflow=hidden;rotatable=0;points=[[0,0.5],[1,0.5]];portConstraint=eastwest;rounded=0;shadow=0;html=0;" vertex="1" parent="QdtZT5HFfQkPyaU6Wwgz-53">
          <mxGeometry y="52" width="740" height="26" as="geometry" />
        </mxCell>
        <mxCell id="QdtZT5HFfQkPyaU6Wwgz-65" value="- agente = Fungos do gÃªnero Phyllosticta citricarpa (sin. Guignardia citricarpa)." style="text;align=left;verticalAlign=top;spacingLeft=4;spacingRight=4;overflow=hidden;rotatable=0;points=[[0,0.5],[1,0.5]];portConstraint=eastwest;rounded=0;shadow=0;html=0;" vertex="1" parent="QdtZT5HFfQkPyaU6Wwgz-53">
          <mxGeometry y="78" width="740" height="26" as="geometry" />
        </mxCell>
        <mxCell id="QdtZT5HFfQkPyaU6Wwgz-66" value="- vetor =Â Esporos disseminados pelo vento, chuva e ferramentas contaminadas." style="text;align=left;verticalAlign=top;spacingLeft=4;spacingRight=4;overflow=hidden;rotatable=0;points=[[0,0.5],[1,0.5]];portConstraint=eastwest;rounded=0;shadow=0;html=0;" vertex="1" parent="QdtZT5HFfQkPyaU6Wwgz-53">
          <mxGeometry y="104" width="740" height="26" as="geometry" />
        </mxCell>
        <mxCell id="QdtZT5HFfQkPyaU6Wwgz-67" value="- profilaxia =Â Uso de mudas sadias, eliminaÃ§Ã£o de restos de cultura, rotaÃ§Ã£o de Ã¡reas e aplicaÃ§Ã£o preventiva de fungicidas" style="text;align=left;verticalAlign=top;spacingLeft=4;spacingRight=4;overflow=hidden;rotatable=0;points=[[0,0.5],[1,0.5]];portConstraint=eastwest;rounded=0;shadow=0;html=0;" vertex="1" parent="QdtZT5HFfQkPyaU6Wwgz-53">
          <mxGeometry y="130" width="740" height="26" as="geometry" />
        </mxCell>
        <mxCell id="QdtZT5HFfQkPyaU6Wwgz-55" value="- tratamento =Â PulverizaÃ§Ã£o com fungicidas cÃºpricos ou sistÃªmicos (como triazÃ³is ou estrobilurinas) conforme manejo integrado." style="text;align=left;verticalAlign=top;spacingLeft=4;spacingRight=4;overflow=hidden;rotatable=0;points=[[0,0.5],[1,0.5]];portConstraint=eastwest;rounded=0;shadow=0;html=0;" vertex="1" parent="QdtZT5HFfQkPyaU6Wwgz-53">
          <mxGeometry y="156" width="740" height="26" as="geometry" />
        </mxCell>
        <mxCell id="QdtZT5HFfQkPyaU6Wwgz-79" value="" style="edgeStyle=orthogonalEdgeStyle;rounded=0;orthogonalLoop=1;jettySize=auto;html=1;endArrow=none;endFill=0;" edge="1" parent="WIyWlLk6GJQsqaUBKTNV-1" source="QdtZT5HFfQkPyaU6Wwgz-68" target="QdtZT5HFfQkPyaU6Wwgz-76">
          <mxGeometry relative="1" as="geometry" />
        </mxCell>
        <mxCell id="QdtZT5HFfQkPyaU6Wwgz-68" value="sin1 : Sintomas" style="swimlane;fontStyle=2;align=center;verticalAlign=top;childLayout=stackLayout;horizontal=1;startSize=26;horizontalStack=0;resizeParent=1;resizeLast=0;collapsible=1;marginBottom=0;rounded=0;shadow=0;strokeWidth=1;" vertex="1" parent="WIyWlLk6GJQsqaUBKTNV-1">
          <mxGeometry x="-965" y="-40" width="1170" height="100" as="geometry">
            <mxRectangle x="230" y="140" width="160" height="26" as="alternateBounds" />
          </mxGeometry>
        </mxCell>
        <mxCell id="QdtZT5HFfQkPyaU6Wwgz-69" value="- nome =Â Manchas negras (lesÃµes necrÃ³ticas) nos frutos" style="text;align=left;verticalAlign=top;spacingLeft=4;spacingRight=4;overflow=hidden;rotatable=0;points=[[0,0.5],[1,0.5]];portConstraint=eastwest;" vertex="1" parent="QdtZT5HFfQkPyaU6Wwgz-68">
          <mxGeometry y="26" width="1170" height="26" as="geometry" />
        </mxCell>
        <mxCell id="QdtZT5HFfQkPyaU6Wwgz-70" value="- descricao =Â Pequenas manchas escuras, arredondadas e ligeiramente afundadas que surgem na casca dos frutos maduros, podendo se agrupar e formar Ã¡reas necrÃ³ticas â o que reduz o valor comercial do fruto" style="text;align=left;verticalAlign=top;spacingLeft=4;spacingRight=4;overflow=hidden;rotatable=0;points=[[0,0.5],[1,0.5]];portConstraint=eastwest;rounded=0;shadow=0;html=0;" vertex="1" parent="QdtZT5HFfQkPyaU6Wwgz-68">
          <mxGeometry y="52" width="1170" height="26" as="geometry" />
        </mxCell>
        <mxCell id="QdtZT5HFfQkPyaU6Wwgz-76" value="imgsin1 : Imagem Sintomas" style="swimlane;fontStyle=2;align=center;verticalAlign=top;childLayout=stackLayout;horizontal=1;startSize=26;horizontalStack=0;resizeParent=1;resizeLast=0;collapsible=1;marginBottom=0;rounded=0;shadow=0;strokeWidth=1;" vertex="1" parent="WIyWlLk6GJQsqaUBKTNV-1">
          <mxGeometry x="-515" y="-149" width="270" height="80" as="geometry">
            <mxRectangle x="230" y="140" width="160" height="26" as="alternateBounds" />
          </mxGeometry>
        </mxCell>
        <mxCell id="QdtZT5HFfQkPyaU6Wwgz-77" value="- caminho = /data/data/ponskan/bib/imgs" style="text;align=left;verticalAlign=top;spacingLeft=4;spacingRight=4;overflow=hidden;rotatable=0;points=[[0,0.5],[1,0.5]];portConstraint=eastwest;" vertex="1" parent="QdtZT5HFfQkPyaU6Wwgz-76">
          <mxGeometry y="26" width="270" height="26" as="geometry" />
        </mxCell>
      </root>
    </mxGraphModel>
  </diagram>
</mxfile>
